<svg xmlns="http://www.w3.org/2000/svg" xmlns:xlink="http://www.w3.org/1999/xlink" width="16" height="16" version="1.1" viewBox="0 0 16 16"><title>icons_outlined_subscriptions</title><desc>Created with Sketch.</desc><g id="icons_outlined_subscriptions" fill="none" fill-rule="evenodd" stroke="none" stroke-width="1"><g id="Group" fill="#000" transform="translate(1.500000, 0.000000)"><path id="Oval-2" d="M12.1875,0 C12.6362314,0 13,0.3581722 13,0.8 L13,15.2 C13,15.6418278 12.6362314,16 12.1875,16 L0.8125,16 C0.363768641,16 0,15.6418278 0,15.2 L0,0.8 C0,0.3581722 0.363768641,0 0.8125,0 L12.1875,0 Z M12.025,0.96 L0.975,0.96 L0.975,15.04 L12.025,15.04 L12.025,0.96 Z M3.65625,2.4 C4.32934704,2.4 4.875,2.9372583 4.875,3.6 C4.875,4.2627417 4.32934704,4.8 3.65625,4.8 C2.98315296,4.8 2.4375,4.2627417 2.4375,3.6 C2.4375,2.9372583 2.98315296,2.4 3.65625,2.4 Z"/><rect id="Rectangle-3" width="6.094" height="1" x="2.438" y="6.4"/><rect id="Rectangle-3" width="3.25" height="1" x="2.438" y="8.8"/><rect id="Rectangle-3" width="3.25" height="1" x="2.438" y="11.2"/></g></g></svg>