<svg xmlns="http://www.w3.org/2000/svg" xmlns:xlink="http://www.w3.org/1999/xlink" width="24" height="24" version="1.1" viewBox="0 0 24 24"><title>icons_outlined_time</title><desc>Created with Sketch.</desc><g id="icons_outlined_time" fill="none" fill-rule="evenodd" stroke="none" stroke-width="1"><g id="icon21" fill="#000" fill-rule="nonzero"><path id="Combined-Shape" d="M12.5999997,11.5029437 L16.4911685,15.3941125 L15.6426403,16.2426407 L11.3999996,12 L11.3999996,6 L12.5999997,6 L12.5999997,11.5029437 Z M12,22 C6.4771525,22 2,17.5228475 2,12 C2,6.4771525 6.4771525,2 12,2 C17.5228475,2 22,6.4771525 22,12 C22,17.5228475 17.5228475,22 12,22 Z M12,20.8 C16.8601058,20.8 20.8,16.8601058 20.8,12 C20.8,7.1398942 16.8601058,3.2 12,3.2 C7.1398942,3.2 3.2,7.1398942 3.2,12 C3.2,16.8601058 7.1398942,20.8 12,20.8 Z"/></g></g></svg>